<?xml version="1.0" encoding="utf-8"?>
<!-- Generator: Adobe Illustrator 15.0.0, SVG Export Plug-In . SVG Version: 6.00 Build 0)  -->
<!DOCTYPE svg PUBLIC "-//W3C//DTD SVG 1.1//EN" "http://www.w3.org/Graphics/SVG/1.1/DTD/svg11.dtd">
<svg version="1.1" id="Layer_1" xmlns="http://www.w3.org/2000/svg" xmlns:xlink="http://www.w3.org/1999/xlink" x="0px" y="0px"
	 width="900px" height="900px" viewBox="0 0 900 900" enable-background="new 0 0 900 900" xml:space="preserve">
<g id="Layer_2">
</g>
<g>
	<polyline fill="#5BA8DD" points="426.642,502.807 426.642,502.807 426.811,500.831 433.059,501.506 433.182,500.586 
		435.226,500.709 437.203,499.667 436.028,497.892 439.128,495.968 439.12,495.871 437.078,492.745 429.221,497.096 
		425.633,490.847 425.667,490.828 416.49,489.129 414.568,500.984 	"/>
	<polyline fill="#5BA8DD" points="462.753,505.796 461.393,519.029 461.378,519.189 466.091,515.106 474.381,516.086 
		473.64,513.881 473.733,513.891 470.676,503.475 462.516,505.661 	"/>
	<polyline fill="#5BA8DD" points="494.624,390.777 491.388,394.589 489.726,397.447 488.149,403.167 488.179,406.362 
		488.13,406.414 488.37,409.735 491.215,415.738 494.061,416.839 498.764,416.227 502.97,417.943 506.684,417.698 509.653,415.738 
		513.219,413.149 513.237,412.798 515.341,412.798 515.467,415.369 515.467,412.797 513.237,412.797 509.65,415.613 
		509.776,409.979 511.257,407.159 514.229,404.831 519.176,402.381 515.764,398.577 511.013,399.566 498.263,393.625 
		494.728,390.677 	"/>
	<polyline fill="#5BA8DD" points="513.364,507.02 508.188,517.396 508.262,517.402 521.261,525.323 525.262,530.769 
		530.011,532.996 533.762,518.887 524.261,512.946 522.763,513.935 518.765,508.49 516.265,508.49 513.523,506.831 	"/>
	<polyline fill="#5BA8DD" points="341.275,416.894 328.775,424.321 318.592,434.258 327.077,439.526 334.36,440.805 
		328.068,448.435 325.274,455.511 322.947,462.039 323.057,462.054 330.975,464.749 357.198,478.167 357.207,478.103 
		361.415,469.281 364.508,465.484 340.749,445.143 350.895,432.645 360.546,437.791 361.908,440.486 364.878,438.895 
		366.275,441.817 376.494,436.665 372.918,429.706 354.358,410.592 	"/>
</g>
</svg>
