<?xml version="1.0" encoding="utf-8"?>
<!-- Generator: Adobe Illustrator 15.0.0, SVG Export Plug-In . SVG Version: 6.00 Build 0)  -->
<!DOCTYPE svg PUBLIC "-//W3C//DTD SVG 1.1//EN" "http://www.w3.org/Graphics/SVG/1.1/DTD/svg11.dtd">
<svg version="1.1" id="Layer_1" xmlns="http://www.w3.org/2000/svg" xmlns:xlink="http://www.w3.org/1999/xlink" x="0px" y="0px"
	 width="320px" height="320px" viewBox="0 0 320 320" enable-background="new 0 0 320 320" xml:space="preserve">
<text transform="matrix(0.9958 -0.0915 0.0915 0.9958 -1.5308 170.4941)" fill="#E8E8E8" font-family="'FreeSansBold'" font-size="81.9302"> </text>
<text transform="matrix(0.9958 -0.0915 0.0915 0.9958 21.1509 168.4082)" fill="#E8E8E8" font-family="'FreeSansBold'" font-size="81.9302"> </text>
<g>
	<path fill="#E8E8E8" d="M47.29,138.609c-0.427-4.649-0.876-8.64-1.458-12.289l6.282-0.577l1.046,7.801l0.245-0.022
		c1.307-5.467,5.405-9.216,10.218-9.659c0.734-0.067,1.312-0.039,1.973-0.017l0.623,6.771c-0.75-0.096-1.483-0.029-2.463,0.061
		c-5.058,0.465-8.302,4.548-8.787,10.022c-0.073,0.994-0.042,2.225,0.063,3.367l1.935,21.049l-7.179,0.659L47.29,138.609z"/>
	<path fill="#E8E8E8" d="M103.007,151.34c0.315,3.427,0.785,6.756,1.44,9.411l-6.445,0.592l-1.028-4.924l-0.245,0.022
		c-1.918,3.303-5.905,6.467-11.534,6.983c-7.995,0.735-12.591-4.52-13.116-10.229c-0.877-9.545,7.127-15.546,22.391-16.867
		l-0.075-0.815c-0.292-3.183-1.737-9.055-9.807-8.231c-3.752,0.345-7.489,1.758-10.09,3.889l-2.074-4.663
		c3.076-2.339,7.761-4.168,12.738-4.625c12.074-1.11,15.769,6.859,16.488,14.69L103.007,151.34z M95.089,141.291
		c-7.847,0.556-16.611,2.76-15.906,10.429c0.435,4.732,3.73,6.569,7.319,6.239c5.221-0.48,8.266-4.051,9.101-7.5
		c0.169-0.838,0.176-1.662,0.116-2.314L95.089,141.291z"/>
	<path fill="#E8E8E8" d="M118.47,110.101l0.87,9.463l10.279-0.945l0.502,5.466l-10.279,0.945l1.957,21.293
		c0.45,4.894,2.092,7.541,6.089,7.173c1.958-0.18,3.085-0.448,4.116-0.872l0.829,5.436c-1.342,0.617-3.5,1.309-6.273,1.564
		c-3.345,0.308-6.141-0.587-8.027-2.306c-2.161-2.023-3.298-5.457-3.726-10.106l-1.98-21.537l-6.119,0.562l-0.502-5.466l6.119-0.562
		l-0.675-7.342L118.47,110.101z"/>
	<path fill="#E8E8E8" d="M145.718,107.596l0.87,9.463l10.279-0.945l0.502,5.466l-10.279,0.945l1.957,21.293
		c0.45,4.894,2.092,7.541,6.089,7.173c1.958-0.18,3.085-0.448,4.116-0.872l0.829,5.436c-1.342,0.617-3.5,1.31-6.273,1.564
		c-3.345,0.308-6.142-0.587-8.027-2.306c-2.161-2.023-3.298-5.457-3.726-10.106l-1.98-21.537l-6.119,0.562l-0.502-5.466l6.119-0.562
		l-0.675-7.342L145.718,107.596z"/>
	<path fill="#E8E8E8" d="M162.271,97.025l7.179-0.66l5.324,57.922l-7.179,0.66L162.271,97.025z"/>
	<path fill="#E8E8E8" d="M188.563,102.013c0.225,2.447-1.309,4.562-4.163,4.825c-2.611,0.24-4.505-1.561-4.729-4.008
		c-0.226-2.447,1.383-4.652,4.074-4.9C186.356,97.69,188.331,99.483,188.563,102.013z M185.217,153.328l-3.629-39.485l7.18-0.66
		l3.629,39.485L185.217,153.328z"/>
	<path fill="#E8E8E8" d="M200.193,122.91c-0.383-4.161-0.765-7.417-1.309-10.658l6.363-0.585l1.008,6.489l0.162-0.015
		c1.621-3.851,5.853-7.942,12.378-8.542c5.467-0.502,14.251,1.98,15.496,15.523l2.159,23.495l-7.18,0.66l-2.092-22.761
		c-0.585-6.364-3.438-11.45-10.209-10.827c-4.65,0.427-8.014,4.11-8.952,8.228c-0.243,0.928-0.294,2.165-0.182,3.39l2.183,23.74
		l-7.18,0.66L200.193,122.91z"/>
	<path fill="#E8E8E8" d="M280.464,138.732c0.84,9.137-0.533,14.775-3.964,18.627c-3.594,3.869-9.028,5.602-14.005,6.059
		c-4.731,0.436-10.058-0.227-13.435-2.055l1.285-5.713c2.768,1.474,6.982,2.566,11.877,2.117
		c7.342-0.675,12.374-5.004,11.452-15.039l-0.397-4.323l-0.164,0.015c-1.783,3.866-5.837,7.2-11.955,7.762
		c-9.79,0.9-17.571-6.777-18.575-17.708c-1.23-13.379,6.809-21.686,15.945-22.526c6.853-0.63,10.847,2.54,12.941,5.638l0.163-0.015
		l-0.302-5.978l6.363-0.584c0.01,2.796,0.228,6.067,0.662,10.798L280.464,138.732z M271.62,121.28
		c-0.112-1.224-0.291-2.276-0.7-3.144c-1.695-4.122-5.436-7.233-10.738-6.746c-6.854,0.63-11.216,6.872-10.376,16.009
		c0.712,7.75,5.302,13.828,12.971,13.123c4.487-0.413,8.229-3.555,9.277-8.258c0.296-1.261,0.331-2.663,0.219-3.887L271.62,121.28z"
		/>
</g>
<g>
	<path fill="#E8E8E8" d="M10.515,228.128l-3.126-34.019l-5.466,0.502l-0.502-5.466l5.466-0.502l-0.173-1.877
		c-0.51-5.547,0.331-10.726,3.301-14.207c2.452-2.859,5.944-4.249,9.289-4.556c2.611-0.24,4.784,0.136,6.224,0.579l-0.469,5.638
		c-1.105-0.392-2.53-0.673-4.651-0.478c-6.118,0.562-7.181,6.008-6.619,12.127l0.195,2.121l9.545-0.878l0.502,5.466l-9.545,0.878
		l3.127,34.019L10.515,228.128z"/>
	<path fill="#E8E8E8" d="M29.882,198.951c-0.427-4.648-0.876-8.639-1.458-12.287l6.282-0.578l1.046,7.802l0.245-0.022
		c1.307-5.467,5.405-9.218,10.218-9.66c0.734-0.067,1.312-0.038,1.973-0.017l0.622,6.771c-0.749-0.096-1.483-0.028-2.462,0.062
		c-5.058,0.465-8.303,4.548-8.787,10.021c-0.073,0.993-0.042,2.226,0.062,3.367l1.935,21.048l-7.179,0.66L29.882,198.951z"/>
	<path fill="#E8E8E8" d="M85.6,211.684c0.315,3.426,0.786,6.756,1.44,9.41l-6.445,0.593l-1.028-4.924l-0.245,0.022
		c-1.918,3.303-5.906,6.466-11.535,6.983c-7.995,0.734-12.591-4.52-13.116-10.23c-0.877-9.545,7.127-15.545,22.391-16.865
		l-0.075-0.816c-0.292-3.182-1.737-9.055-9.806-8.231c-3.753,0.346-7.49,1.76-10.091,3.891l-2.074-4.665
		c3.076-2.339,7.762-4.168,12.738-4.625c12.074-1.11,15.768,6.86,16.488,14.691L85.6,211.684z M77.683,201.633
		c-7.847,0.558-16.611,2.762-15.907,10.431c0.435,4.731,3.73,6.567,7.32,6.237c5.221-0.48,8.266-4.051,9.101-7.5
		c0.17-0.839,0.176-1.662,0.116-2.314L77.683,201.633z"/>
	<path fill="#E8E8E8" d="M94.511,191.366c-0.382-4.161-0.846-7.408-1.308-10.657l6.281-0.577l0.919,6.414l0.245-0.022
		c1.857-3.955,5.207-7.8,11.814-8.407c5.303-0.487,9.682,2.401,11.822,6.893l0.163-0.015c1.015-2.396,2.496-4.178,4.015-5.552
		c2.201-2.012,4.64-3.224,8.393-3.568c5.302-0.487,13.368,2.226,14.627,15.932l2.129,23.169l-7.016,0.645l-2.047-22.271
		c-0.705-7.668-3.972-11.893-9.683-11.367c-4.16,0.382-6.983,3.686-7.974,7.232c-0.229,1.09-0.361,2.336-0.241,3.642l2.242,24.393
		l-7.016,0.645l-2.174-23.658c-0.578-6.282-3.764-10.514-9.229-10.011c-4.405,0.404-7.42,4.301-8.232,7.997
		c-0.318,1.016-0.361,2.335-0.249,3.56l2.182,23.739l-7.016,0.646L94.511,191.366z"/>
	<path fill="#E8E8E8" d="M167.178,195.136c1.056,9.692,7.541,13.128,14.803,12.46c5.139-0.473,8.238-1.662,10.744-3.045l1.777,5.02
		c-2.424,1.375-6.701,3.167-12.983,3.744c-12.155,1.117-20.158-6.291-21.253-18.201c-1.095-11.911,5.066-21.857,16.568-22.914
		c12.972-1.192,17.352,9.759,18.019,17.019c0.135,1.469,0.151,2.537,0.062,3.368L167.178,195.136z M187.754,188.062
		c-0.331-4.495-2.941-11.413-11.018-10.671c-7.343,0.676-9.835,7.567-9.949,12.598L187.754,188.062z"/>
	<path fill="#E8E8E8" d="M203.613,203.058c2.323,1.103,6.211,2.227,9.8,1.896c5.14-0.473,7.354-3.228,7.048-6.571
		c-0.315-3.427-2.52-5.034-7.921-6.512c-7.419-1.951-11.116-5.478-11.552-10.21c-0.585-6.362,4.156-12.064,12.56-12.837
		c3.997-0.367,7.603,0.372,9.852,1.563l-1.233,5.378c-1.64-0.837-4.623-1.961-8.294-1.623c-4.242,0.39-6.302,3.048-6.031,5.984
		c0.3,3.263,2.719,4.521,8.046,6.089c7.004,1.906,10.908,5.003,11.448,10.877c0.645,7.015-4.371,12.412-13.59,13.26
		c-4.324,0.397-8.426-0.378-11.35-1.754L203.613,203.058z"/>
</g>
<polygon fill="#E8E8E8" points="0.435,242.979 0.435,320 319.938,320 319.938,212.559 "/>
</svg>
